<svg width="396" height="274" viewBox="0 0 396 274" fill="none" xmlns="http://www.w3.org/2000/svg">
<path d="M140.645 51.9984C138.261 55.9872 137 60.5619 137 65.2407C137 69.9197 138.261 74.5024 140.654 78.4911C141.384 79.7029 142.211 80.8588 143.135 81.9421C145.046 84.1893 147.366 86.0594 149.912 87.5442L171.528 100.177L171.873 99.9759L197.191 85.1845L163.064 65.2487L223.44 29.9838V0L149.92 42.9453C147.158 44.5587 144.668 46.6212 142.661 49.1171C141.922 50.032 141.256 51.0032 140.654 52.0064L140.645 51.9984Z" fill="#810CD2"/>
<path d="M254.426 98.0015C256.811 94.0128 258.072 89.4383 258.072 84.7593C258.072 80.0803 256.811 75.4976 254.418 71.5088C253.687 70.297 252.86 69.1411 251.937 68.0578C250.026 65.8106 247.705 63.9408 245.16 62.456L223.544 49.8234L223.199 50.024L197.881 64.8154L232.007 84.7513L171.632 120.016V150L245.152 107.055C247.914 105.441 250.403 103.379 252.411 100.883C253.149 99.968 253.816 98.9967 254.418 97.9935L254.426 98.0015Z" fill="#810CD2"/>
<path d="M46.6364 178.636C46.2273 175.182 44.5682 172.5 41.6591 170.591C38.75 168.682 35.1818 167.727 30.9545 167.727C27.8636 167.727 25.1591 168.227 22.8409 169.227C20.5455 170.227 18.75 171.602 17.4545 173.352C16.1818 175.102 15.5455 177.091 15.5455 179.318C15.5455 181.182 15.9886 182.784 16.875 184.125C17.7841 185.443 18.9432 186.545 20.3523 187.432C21.7614 188.295 23.2386 189.011 24.7841 189.58C26.3295 190.125 27.75 190.568 29.0455 190.909L36.1364 192.818C37.9545 193.295 39.9773 193.955 42.2045 194.795C44.4545 195.636 46.6023 196.784 48.6477 198.239C50.7159 199.67 52.4205 201.511 53.7614 203.761C55.1023 206.011 55.7727 208.773 55.7727 212.045C55.7727 215.818 54.7841 219.227 52.8068 222.273C50.8523 225.318 47.9886 227.739 44.2159 229.534C40.4659 231.33 35.9091 232.227 30.5455 232.227C25.5455 232.227 21.2159 231.42 17.5568 229.807C13.9205 228.193 11.0568 225.943 8.96591 223.057C6.89773 220.17 5.72727 216.818 5.45455 213H14.1818C14.4091 215.636 15.2955 217.818 16.8409 219.545C18.4091 221.25 20.3864 222.523 22.7727 223.364C25.1818 224.182 27.7727 224.591 30.5455 224.591C33.7727 224.591 36.6705 224.068 39.2386 223.023C41.8068 221.955 43.8409 220.477 45.3409 218.591C46.8409 216.682 47.5909 214.455 47.5909 211.909C47.5909 209.591 46.9432 207.705 45.6477 206.25C44.3523 204.795 42.6477 203.614 40.5341 202.705C38.4205 201.795 36.1364 201 33.6818 200.318L25.0909 197.864C19.6364 196.295 15.3182 194.057 12.1364 191.148C8.95455 188.239 7.36364 184.432 7.36364 179.727C7.36364 175.818 8.42045 172.409 10.5341 169.5C12.6705 166.568 15.5341 164.295 19.125 162.682C22.7386 161.045 26.7727 160.227 31.2273 160.227C35.7273 160.227 39.7273 161.034 43.2273 162.648C46.7273 164.239 49.5 166.42 51.5455 169.193C53.6136 171.966 54.7045 175.114 54.8182 178.636H46.6364ZM78.1278 161.182V231H69.6733V161.182H78.1278ZM150.443 161.182V231H142.261L104.216 176.182H103.534V231H95.0795V161.182H103.261L141.443 216.136H142.125V161.182H150.443ZM163.543 168.682V161.182H215.906V168.682H193.952V231H185.497V168.682H163.543Z" fill="white"/>
<rect x="229" y="161" width="42" height="8" fill="white"/>
<rect x="229" y="192" width="42" height="8" fill="white"/>
<rect x="229" y="223" width="42" height="8" fill="white"/>
<path d="M322.636 178.636C322.227 175.182 320.568 172.5 317.659 170.591C314.75 168.682 311.182 167.727 306.955 167.727C303.864 167.727 301.159 168.227 298.841 169.227C296.545 170.227 294.75 171.602 293.455 173.352C292.182 175.102 291.545 177.091 291.545 179.318C291.545 181.182 291.989 182.784 292.875 184.125C293.784 185.443 294.943 186.545 296.352 187.432C297.761 188.295 299.239 189.011 300.784 189.58C302.33 190.125 303.75 190.568 305.045 190.909L312.136 192.818C313.955 193.295 315.977 193.955 318.205 194.795C320.455 195.636 322.602 196.784 324.648 198.239C326.716 199.67 328.42 201.511 329.761 203.761C331.102 206.011 331.773 208.773 331.773 212.045C331.773 215.818 330.784 219.227 328.807 222.273C326.852 225.318 323.989 227.739 320.216 229.534C316.466 231.33 311.909 232.227 306.545 232.227C301.545 232.227 297.216 231.42 293.557 229.807C289.92 228.193 287.057 225.943 284.966 223.057C282.898 220.17 281.727 216.818 281.455 213H290.182C290.409 215.636 291.295 217.818 292.841 219.545C294.409 221.25 296.386 222.523 298.773 223.364C301.182 224.182 303.773 224.591 306.545 224.591C309.773 224.591 312.67 224.068 315.239 223.023C317.807 221.955 319.841 220.477 321.341 218.591C322.841 216.682 323.591 214.455 323.591 211.909C323.591 209.591 322.943 207.705 321.648 206.25C320.352 204.795 318.648 203.614 316.534 202.705C314.42 201.795 312.136 201 309.682 200.318L301.091 197.864C295.636 196.295 291.318 194.057 288.136 191.148C284.955 188.239 283.364 184.432 283.364 179.727C283.364 175.818 284.42 172.409 286.534 169.5C288.67 166.568 291.534 164.295 295.125 162.682C298.739 161.045 302.773 160.227 307.227 160.227C311.727 160.227 315.727 161.034 319.227 162.648C322.727 164.239 325.5 166.42 327.545 169.193C329.614 171.966 330.705 175.114 330.818 178.636H322.636ZM345.673 231V161.182H387.81V168.682H354.128V192.273H385.628V199.773H354.128V223.5H388.355V231H345.673Z" fill="white"/>
<path d="M132.25 267H125.966V246.636H132.528C134.504 246.636 136.194 247.044 137.599 247.859C139.005 248.668 140.082 249.831 140.831 251.349C141.58 252.861 141.955 254.67 141.955 256.778C141.955 258.9 141.577 260.726 140.821 262.257C140.065 263.782 138.965 264.955 137.52 265.777C136.075 266.592 134.318 267 132.25 267ZM128.432 264.812H132.091C133.775 264.812 135.17 264.488 136.277 263.838C137.384 263.188 138.209 262.264 138.753 261.064C139.296 259.864 139.568 258.436 139.568 256.778C139.568 255.134 139.3 253.719 138.763 252.533C138.226 251.339 137.424 250.425 136.357 249.788C135.289 249.145 133.96 248.824 132.369 248.824H128.432V264.812ZM155.557 246.636V267H153.091V246.636H155.557ZM181.422 253C181.203 252.33 180.914 251.731 180.556 251.2C180.205 250.663 179.784 250.206 179.294 249.828C178.81 249.45 178.26 249.162 177.643 248.963C177.027 248.764 176.35 248.665 175.615 248.665C174.408 248.665 173.311 248.976 172.324 249.599C171.336 250.223 170.55 251.141 169.967 252.354C169.384 253.567 169.092 255.055 169.092 256.818C169.092 258.581 169.387 260.07 169.977 261.283C170.567 262.496 171.366 263.414 172.373 264.037C173.381 264.66 174.514 264.972 175.774 264.972C176.94 264.972 177.968 264.723 178.856 264.226C179.751 263.722 180.447 263.013 180.944 262.098C181.448 261.177 181.7 260.093 181.7 258.847L182.456 259.006H176.331V256.818H184.086V259.006C184.086 260.683 183.728 262.141 183.012 263.381C182.303 264.62 181.322 265.581 180.069 266.264C178.823 266.94 177.391 267.278 175.774 267.278C173.971 267.278 172.386 266.854 171.021 266.006C169.662 265.157 168.601 263.951 167.839 262.386C167.083 260.822 166.706 258.966 166.706 256.818C166.706 255.207 166.921 253.759 167.352 252.473C167.789 251.18 168.406 250.08 169.201 249.172C169.997 248.264 170.938 247.568 172.025 247.084C173.112 246.6 174.309 246.358 175.615 246.358C176.689 246.358 177.69 246.52 178.618 246.845C179.552 247.163 180.384 247.617 181.113 248.207C181.849 248.791 182.462 249.49 182.953 250.305C183.443 251.114 183.781 252.012 183.967 253H181.422ZM197.776 246.636V267H195.31V246.636H197.776ZM208.606 248.824V246.636H223.879V248.824H217.475V267H215.01V248.824H208.606ZM233.141 267H230.556L238.033 246.636H240.578L248.056 267H245.471L239.385 249.858H239.226L233.141 267ZM234.096 259.045H244.516V261.233H234.096V259.045ZM258.228 267V246.636H260.694V264.812H270.159V267H258.228Z" fill="white"/>
</svg>
